<?xml version="1.0" standalone="no"?>
<!DOCTYPE svg PUBLIC "-//W3C//DTD SVG 20010904//EN"
 "http://www.w3.org/TR/2001/REC-SVG-20010904/DTD/svg10.dtd">
<svg version="1.0" xmlns="http://www.w3.org/2000/svg"
 width="422.000000pt" height="245.000000pt" viewBox="0 0 422.000000 245.000000"
 preserveAspectRatio="xMidYMid meet">
<metadata>
Created by potrace 1.16, written by Peter Selinger 2001-2019
</metadata>
<g transform="translate(0.000000,245.000000) scale(0.100000,-0.100000)"
fill="#000000" stroke="none">
<path d="M1715 2356 c-177 -35 -311 -116 -398 -238 -116 -163 -154 -312 -144
-554 6 -128 48 -378 67 -398 5 -5 109 -24 232 -42 201 -30 438 -68 511 -81 20
-4 27 -2 27 11 0 20 17 17 -398 79 -194 30 -355 57 -359 60 -3 4 0 13 6 21 10
12 10 29 -3 83 -18 81 -40 282 -32 290 3 4 9 -8 12 -25 4 -17 14 -34 23 -36
35 -11 244 -46 250 -42 3 3 31 -8 61 -22 71 -35 77 -57 40 -146 l-28 -66 41
-10 c73 -19 77 -21 103 -47 14 -14 48 -31 77 -38 66 -16 28 -18 -64 -4 -39 6
-72 9 -75 7 -2 -3 68 -17 157 -32 88 -15 163 -26 166 -23 3 3 -13 48 -35 99
-86 201 -135 405 -136 563 -1 122 14 179 65 249 78 107 243 156 479 140 202
-13 265 -12 265 6 0 33 -264 137 -460 180 -119 27 -353 35 -450 16z"/>
<path d="M2065 1926 c-66 -31 -110 -79 -130 -144 -33 -100 5 -213 104 -311
173 -173 414 -196 543 -53 29 32 38 51 43 97 16 122 -14 202 -110 294 -133
128 -323 177 -450 117z"/>
<path d="M2693 1866 c3 -18 20 -69 37 -112 17 -44 37 -114 43 -157 15 -103 -5
-184 -68 -279 -52 -79 -120 -135 -225 -188 -184 -92 -339 -124 -600 -124 -199
1 -285 12 -513 64 -71 17 -130 30 -132 30 -5 0 146 -376 347 -863 l62 -148 40
6 c58 10 331 79 402 103 336 111 635 308 793 521 58 77 123 208 151 301 85
282 -11 586 -259 823 -70 67 -86 71 -78 23z m-1367 -806 c8 -8 134 -34 361
-76 18 -3 22 -10 20 -42 -3 -77 3 -147 12 -133 6 10 11 5 17 -20 12 -53 14
-70 18 -129 l3 -55 69 -3 c85 -3 114 -9 114 -24 0 -6 7 -19 16 -29 14 -16 12
-18 -38 -28 -29 -6 -72 -12 -94 -14 l-42 -2 50 -120 c27 -66 53 -130 58 -142
9 -21 5 -23 -90 -44 -55 -12 -100 -26 -100 -31 0 -4 -4 -8 -9 -8 -10 0 -259
578 -372 863 -18 44 -15 59 7 37z"/>
</g>
</svg>
