<?xml version="1.0" standalone="no"?>
<!DOCTYPE svg PUBLIC "-//W3C//DTD SVG 20010904//EN"
 "http://www.w3.org/TR/2001/REC-SVG-20010904/DTD/svg10.dtd">
<svg version="1.0" xmlns="http://www.w3.org/2000/svg"
 width="225.000000pt" height="225.000000pt" viewBox="0 0 225.000000 225.000000"
 preserveAspectRatio="xMidYMid meet">

<g transform="translate(0.000000,225.000000) scale(0.100000,-0.100000)"
fill="#000000" stroke="none">
<path d="M696 2204 c-235 -51 -401 -215 -468 -463 -33 -121 -30 -354 6 -526
15 -71 32 -134 36 -139 10 -10 28 -13 290 -52 96 -14 227 -34 290 -45 138 -23
150 -23 150 -5 0 9 -15 16 -37 20 -224 33 -643 98 -661 101 -29 7 -29 25 1 25
13 0 17 3 10 8 -16 10 -41 114 -48 202 -3 41 -8 91 -11 110 l-4 35 15 -26 c18
-33 60 -49 143 -55 34 -3 74 -9 88 -14 14 -6 38 -10 53 -10 15 0 36 -9 46 -20
10 -11 24 -20 32 -20 20 0 16 -57 -8 -107 -12 -24 -19 -49 -16 -57 5 -13 92
-46 121 -46 9 0 16 -5 16 -11 0 -5 -4 -7 -10 -4 -5 3 -10 4 -10 1 0 -10 44
-29 95 -42 l50 -13 -70 5 c-38 2 -65 2 -60 -1 14 -6 247 -46 250 -43 2 2 -10
32 -27 68 -68 149 -129 368 -143 516 -15 148 33 286 120 345 22 16 72 38 110
51 60 20 90 23 210 23 77 0 183 -2 237 -5 147 -8 144 12 -12 78 -122 52 -281
99 -395 117 -113 19 -299 18 -389 -1z"/>
<path d="M1114 1821 c-51 -9 -127 -53 -152 -89 -100 -143 -8 -359 197 -460 71
-35 80 -37 170 -37 85 0 102 3 148 28 115 60 151 192 87 319 -78 154 -289 267
-450 239z m-47 -381 c31 -34 74 -70 95 -81 21 -11 36 -24 33 -29 -3 -5 18 -20
47 -34 60 -28 46 -33 -28 -11 -44 13 -140 77 -132 88 2 2 -16 25 -39 50 -42
45 -73 104 -73 136 1 9 10 -1 20 -21 11 -20 45 -64 77 -98z"/>
<path d="M1650 1750 c0 -12 13 -55 30 -98 83 -216 63 -357 -70 -492 -221 -226
-680 -298 -1175 -184 -60 14 -125 28 -142 31 l-33 6 81 -199 c328 -810 309
-764 325 -764 22 0 190 39 289 66 598 168 993 525 1046 945 26 213 -56 428
-235 616 -89 93 -116 110 -116 73z m-1204 -801 c44 -10 114 -23 155 -29 125
-18 114 -9 115 -97 1 -51 7 -88 18 -108 9 -16 16 -39 16 -50 0 -12 5 -26 11
-32 9 -9 9 -20 0 -43 -9 -27 -8 -31 4 -26 8 3 15 1 15 -3 0 -5 -6 -12 -12 -14
-7 -3 -4 -6 7 -7 11 -1 29 -3 40 -4 11 -1 41 -3 66 -4 41 -2 48 -5 53 -27 4
-17 14 -25 29 -26 37 -1 -85 -28 -130 -29 -24 0 -43 -4 -43 -10 0 -11 44 -123
77 -198 13 -29 22 -56 19 -61 -3 -5 -44 -16 -91 -26 -47 -10 -85 -22 -85 -27
0 -4 -7 -8 -15 -8 -8 0 -15 4 -15 10 0 5 -33 87 -74 182 -58 135 -242 576
-274 657 -4 11 -1 13 14 7 10 -5 55 -17 100 -27z m534 -175 c0 -11 5 -14 16
-10 13 5 15 1 12 -19 -3 -13 -2 -22 3 -20 4 3 11 -5 15 -17 4 -13 2 -24 -5
-26 -6 -2 -11 -11 -11 -20 0 -26 -18 4 -31 53 -5 22 -12 48 -15 58 -3 9 -1 17
5 17 6 0 11 -7 11 -16z"/>
<path d="M731 643 c0 -4 4 -17 9 -28 8 -19 9 -19 9 2 1 12 -3 25 -9 28 -5 3
-10 3 -9 -2z"/>
<path d="M368 1113 c6 -2 18 -2 25 0 6 3 1 5 -13 5 -14 0 -19 -2 -12 -5z"/>
<path d="M428 1103 c7 -3 16 -2 19 1 4 3 -2 6 -13 5 -11 0 -14 -3 -6 -6z"/>
<path d="M635 1070 c17 -4 44 -8 60 -8 25 0 24 2 -10 9 -51 10 -92 10 -50 -1z"/>
</g>
</svg>
